<?xml version="1.0" standalone="no"?>
<!DOCTYPE svg PUBLIC "-//W3C//DTD SVG 1.1//EN" "http://www.w3.org/Graphics/SVG/1.1/DTD/svg11.dtd" >
<!--
2013-9-30: Created.
-->
<svg>
<metadata>
Created by iconfont
</metadata>
<defs>

<font id="iconfont" horiz-adv-x="1024" >
  <font-face
    font-family="iconfont"
    font-weight="500"
    font-stretch="normal"
    units-per-em="1024"
    ascent="896"
    descent="-128"
  />
    <missing-glyph />
    
    <glyph glyph-name="x" unicode="x" horiz-adv-x="1001"
d="M281 543q-27 -1 -53 -1h-83q-18 0 -36.5 -6t-32.5 -18.5t-23 -32t-9 -45.5v-76h912v41q0 16 -0.5 30t-0.5 18q0 13 -5 29t-17 29.5t-31.5 22.5t-49.5 9h-133v-97h-438v97zM955 310v-52q0 -23 0.5 -52t0.5 -58t-10.5 -47.5t-26 -30t-33 -16t-31.5 -4.5q-14 -1 -29.5 -0.5
t-29.5 0.5h-32l-45 128h-439l-44 -128h-29h-34q-20 0 -45 1q-25 0 -41 9.5t-25.5 23t-13.5 29.5t-4 30v167h911zM163 247q-12 0 -21 -8.5t-9 -21.5t9 -21.5t21 -8.5q13 0 22 8.5t9 21.5t-9 21.5t-22 8.5zM316 123q-8 -26 -14 -48q-5 -19 -10.5 -37t-7.5 -25t-3 -15t1 -14.5
t9.5 -10.5t21.5 -4h37h67h81h80h64h36q23 0 34 12t2 38q-5 13 -9.5 30.5t-9.5 34.5q-5 19 -11 39h-368zM336 498v228q0 11 2.5 23t10 21.5t20.5 15.5t34 6h188q31 0 51.5 -14.5t20.5 -52.5v-227h-327z" />
    

    
    <glyph glyph-name="fangdajing" unicode="&#58932;" d="M850.453-0.653l0.105 0.223-197.89 193.493c38.961 45.944 61.363 103.043 63.198 161.203 3.664 70.834-24.038 144.003-74.073 195.682-42.739 45.105-102.838 75.421-164.821 83.209-12.031 1.639-24.352 2.458-36.625 2.458-61.344 0-121.126-19.942-168.322-56.113-54.705-40.781-92.468-101.996-103.616-167.925-11.054-61.446 0.911-127.372 32.811-180.82 21.819-37.152 52.888-69.073 89.828-92.298 33.909-21.453 72.924-35.474 112.775-40.485 11.958-1.62 24.219-2.439 36.445-2.439 56.586 0 112.572 17.3 158.132 48.773l197.642-193.343 3.655-3.368 0.105 0.091c6.515-5.235 14.768-8.14 23.319-8.14 20.202 0 36.637 16.127 36.637 35.947 0 8.787-3.358 17.279-9.308 23.853M649.856 263.257c-32.378-64.734-97.46-112.073-169.899-123.548-33.909-5.773-69.646-3.986-102.941 5.139-64.972 17.433-120.583 63.58-148.808 123.528-32.677 66.559-28.602 150.391 10.387 213.6 34.702 58.404 95.873 99.427 163.56 109.707l4.802 0.71c2.525 0.409 5.069 0.799 7.555 1.082 8.369 0.858 16.882 1.286 25.282 1.286 34.569 0 68.716-7.283 98.811-21.085 55.059-24.691 98.955-70.579 120.409-125.929 23.529-59.109 20.125-128.061-9.157-184.488z"  horiz-adv-x="1024" />

    
    <glyph glyph-name="zhanghaoanquan" unicode="&#58890;" d="M900.83328 638.82112c-11.28448 10.46528-26.112 16.24064-41.472 16.24064-1.41312 0-2.80576-0.06144-4.21888-0.14336-0.83968-0.06144-10.60864-0.63488-25.9072-0.63488-25.33376 0-74.79296 1.69984-121.6512 13.12768-60.5184 14.7456-130.37568 83.21024-150.69184 96.72704-10.19904 6.79936-21.99552 10.19904-33.792 10.19904-11.776 0-23.552-3.39968-33.77152-10.15808-2.47808-1.65888-75.59168-79.29856-147.10784-96.74752-46.83776-11.42784-97.25952-13.12768-122.55232-13.12768-15.33952 0-25.06752 0.57344-26.03008 0.63488-1.3312 0.08192-2.6624 0.14336-4.01408 0.14336-15.38048 0-30.28992-5.79584-41.59488-16.30208-12.30848-11.40736-19.31264-27.38176-19.31264-44.09344l0-151.01952c0-558.3872 368.0256-630.29248 383.63136-633.07776 3.60448-0.63488 7.168-0.96256 10.752-0.96256s7.24992 0.32768 10.752 0.96256c15.64672 2.78528 386.3552 74.69056 386.3552 633.07776l0 151.01952C920.20736 611.41888 913.16224 627.41376 900.83328 638.82112L900.83328 638.82112 900.83328 638.82112zM859.36128 443.64672c0-514.2528-336.2816-573.62432-336.2816-573.62432S189.50144-70.64704 189.50144 443.64672l0 151.04c0 0 11.53024-0.8192 30.14656-0.8192 31.90784 0 85.58592 2.33472 137.03168 14.90944 84.25472 20.50048 166.4 105.14432 166.4 105.14432s85.79072-84.64384 169.984-105.14432c51.48672-12.57472 104.2432-14.90944 136.17152-14.90944 18.57536 0 30.12608 0.8192 30.12608 0.8192L859.36128 443.64672 859.36128 443.64672 859.36128 443.64672zM712.23296 474.94016 476.54912 240.95616l-116.89984 116.06016c-14.49984 14.41792-38.07232 14.41792-52.57216 0-14.49984-14.4384-14.49984-37.7856 0-52.18304l136.37632-135.39328c1.59744-2.72384 3.56352-5.34528 5.91872-7.70048 7.4752-7.41376 17.38752-11.01824 27.19744-10.752 9.80992-0.26624 19.70176 3.35872 27.17696 10.752 2.37568 2.3552 4.34176 4.95616 5.9392 7.70048l255.13984 253.31712c14.52032 14.39744 14.52032 37.76512 0 52.18304S726.75328 489.35808 712.23296 474.94016L712.23296 474.94016 712.23296 474.94016zM712.23296 474.94016"  horiz-adv-x="1024" />

    
    <glyph glyph-name="suo1" unicode="&#59009;" d="M791.988344-120.054027 232.010633-120.054027c-46.816259 0-84.806501 37.579897-84.806501 84.074837L147.204132 451.190285c0 46.382377 37.990243 83.962274 84.806501 83.962274l50.941206 0L282.951839 652.747837c0 129.909745 106.355283 235.30619 237.543138 235.30619 131.184785 0 237.518578-105.396445 237.518578-235.30619l0-117.596302 33.974789 0c46.814212 0 84.806501-37.579897 84.806501-83.962274L876.794845-35.97919C876.794845-82.475154 838.802556-120.054027 791.988344-120.054027L791.988344-120.054027zM724.056162 661.117458c0 106.787118-95.840812 193.280028-203.562209 193.280028-107.74698 0-203.588815-86.49291-203.588815-193.280028l0-125.9649 407.151024 0L724.056162 661.117458 724.056162 661.117458zM842.841545 417.531698c0 46.496987-38.015825 84.075861-84.827991 84.075861L265.963932 501.607558c-46.793746 0-84.806501-37.579897-84.806501-84.075861L181.157431-2.455679c0-46.384423 38.012755-83.963297 84.806501-83.963297l492.049622 0c46.812165 0 84.827991 37.578874 84.827991 83.963297L842.841545 417.531698 842.841545 417.531698z"  horiz-adv-x="1024" />

    
    <glyph glyph-name="sousuoxiangqing" unicode="&#59283;" d="M336 448l-32 0C295.168 448 288 440.832 288 432S295.168 416 304 416l32 0c8.832 0 16 7.168 16 16S344.832 448 336 448zM624 320l-224 0c-8.832 0-16-7.168-16-16s7.168-16 16-16l224 0c8.832 0 16 7.168 16 16S632.832 320 624 320zM336 576l-32 0C295.168 576 288 568.832 288 560S295.168 544 304 544l32 0c8.832 0 16 7.168 16 16S344.832 576 336 576zM954.624-35.424l-191.104 191.104c-2.048 2.048-4.608 3.232-7.2 3.968C822.944 231.04 864 326.624 864 432 864 652.896 684.896 832 464 832S64 652.896 64 432 243.104 32 464 32c105.376 0 200.928 41.056 272.416 107.68 0.704-2.624 1.888-5.152 3.936-7.2l191.104-191.104c6.4-6.4 16.768-6.4 23.2 0S961.024-41.856 954.624-35.424zM464 64C260.736 64 96 228.736 96 432S260.736 800 464 800 832 635.264 832 432 667.264 64 464 64zM624 448l-224 0c-8.832 0-16-7.168-16-16s7.168-16 16-16l224 0c8.832 0 16 7.168 16 16S632.832 448 624 448zM624 576l-224 0c-8.832 0-16-7.168-16-16s7.168-16 16-16l224 0c8.832 0 16 7.168 16 16S632.832 576 624 576zM336 320l-32 0C295.168 320 288 312.832 288 304S295.168 288 304 288l32 0c8.832 0 16 7.168 16 16S344.832 320 336 320z"  horiz-adv-x="1024" />

    
    <glyph glyph-name="icon" unicode="&#58955;" d="M512.133 271.019l-292.16 292.155c-12.27 12.28-32.186 12.28-44.457 0-12.281-12.27-12.281-32.186 0-44.457l314.388-314.388c12.27-12.28 32.186-12.28 44.457 0l314.387 314.388c6.14 6.136 9.211 14.183 9.211 22.228s-3.071 16.092-9.211 22.228c-12.27 12.28-32.186 12.28-44.457 0l-292.159-292.155z"  horiz-adv-x="1024" />

    
    <glyph glyph-name="chilun01" unicode="&#58899;" d="M904.108934 482.03785l-53.6939 0c-12.091386 0-22.786982 7.706519-26.601868 19.167548l-10.203386 30.622438c-3.391237 10.161431-0.793062 21.157879 6.757914 28.713972l35.927257 35.922141c10.587126 10.586103 16.425088 24.659633 16.425088 39.628556 0 14.969946-5.837962 29.042453-16.425088 39.628556l-52.572356 52.593845c-10.587126 10.571776-24.659633 16.418948-39.634696 16.418948s-29.05064-5.847172-39.634696-16.418948l-35.927257-35.935444c-7.41283-7.446599-18.669198-10.100032-28.680203-6.770194l-30.635741 10.210549c-11.476379 3.822049-19.174712 14.517645-19.174712 26.600845L610.035292 776.106376c0 30.908964-25.13854 56.053644-56.047504 56.053644l-83.97353 0c-30.909987 0-56.047504-25.14468-56.047504-56.053644l0-53.68776c0-12.084223-7.699356-22.778796-19.174712-26.600845l-30.635741-10.210549c-9.956769-3.329838-21.239743-0.676405-28.680203 6.770194l-35.928281 35.935444c-10.585079 10.571776-24.658609 16.418948-39.634696 16.418948s-29.049616-5.847172-39.634696-16.418948l-52.572356-52.593845c-10.586103-10.586103-16.426111-24.658609-16.426111-39.628556 0-14.968923 5.840008-29.042453 16.426111-39.628556l35.928281-35.922141c7.54893-7.556093 10.148128-18.552541 6.756891-28.713972l-10.190083-30.615275c-3.829212-11.468193-14.523785-19.174712-26.614148-19.174712l-53.694923 0c-30.908964 0-56.047504-25.143657-56.047504-56.047504l0-83.96739c0-30.908964 25.137517-56.047504 56.047504-56.047504l53.694923 0c12.090363 0 22.784936-7.713682 26.600845-19.174712l10.203386-30.621415c3.391237-10.148128 0.793062-21.144576-6.756891-28.707832l-35.928281-35.928281c-10.586103-10.586103-16.426111-24.659633-16.426111-39.634696 0-14.96176 5.840008-29.03529 16.426111-39.607066l52.572356-52.599985c10.586103-10.586103 24.659633-16.412808 39.634696-16.412808s29.049616 5.826705 39.634696 16.412808l35.928281 35.941584c7.440459 7.41283 18.723434 10.066263 28.680203 6.756891l30.635741-10.203386c11.475356-3.829212 19.174712-14.523785 19.174712-26.600845l0-53.694923c0-30.908964 25.136493-56.059783 56.047504-56.059783l83.97353 0c30.908964 0 56.047504 25.15082 56.047504 56.059783l0 53.694923c0 12.07706 7.698333 22.771633 19.174712 26.600845l30.635741 10.203386c10.011005 3.309372 21.267373 0.656963 28.680203-6.756891l35.927257-35.941584c10.585079-10.586103 24.659633-16.412808 39.634696-16.412808s29.048593 5.826705 39.634696 16.412808l52.572356 52.599985c10.587126 10.571776 16.425088 24.645306 16.425088 39.607066 0 14.976086-5.837962 29.049616-16.425088 39.634696l-35.927257 35.928281c-7.550976 7.563256-10.149151 18.559705-6.757914 28.707832l10.18906 30.608112c3.829212 11.474332 14.523785 19.188015 26.616194 19.188015l53.6939 0c30.908964 0 56.047504 25.137517 56.047504 56.047504l0 83.96739C960.156438 456.89317 935.017898 482.03785 904.108934 482.03785zM932.145477 342.022956c0-15.468296-12.58155-28.05087-28.036543-28.05087l-53.6939 0c-24.15412 0-45.530986-15.399735-53.190433-38.321794l-10.201339-30.635741c-6.743588-20.269649-1.560542-42.233893 13.538341-57.332776l35.927257-35.941584c5.294586-5.306866 8.220219-12.33698 8.220219-19.831674 0-7.481392-2.925632-14.523785-8.220219-19.817348l-52.572356-52.586682c-10.585079-10.586103-29.076222-10.586103-39.661302 0l-35.929304 35.914978c-14.83794 14.866592-37.404911 20.200064-57.345056 13.553691l-30.636764-10.216689c-22.920012-7.630794-38.321794-28.994358-38.321794-53.160757l0-53.694923c0-15.467273-12.58155-28.049846-28.036543-28.049846l-83.97353 0c-15.456017 0-28.037567 12.582573-28.037567 28.049846l0 53.694923c0 24.166399-15.399735 45.529963-38.320771 53.160757l-30.635741 10.216689c-5.730515 1.914606-11.69332 2.885723-17.724687 2.885723-14.962783 0-29.049616-5.840008-39.621393-16.439414l-35.928281-35.914978c-10.586103-10.586103-29.076222-10.586103-39.662325 0l-52.573379 52.586682c-5.29254 5.293563-8.219195 12.33698-8.219195 19.817348 0 7.494695 2.926656 14.524808 8.219195 19.831674l35.928281 35.941584c15.098883 15.098883 20.282952 37.064151 13.539364 57.332776l-10.215666 30.649044c-7.645121 22.908756-29.021987 38.308491-53.175083 38.308491l-53.694923 0c-15.454994 0-28.036543 12.582573-28.036543 28.05087l0 83.96739c0 15.461133 12.582573 28.043706 28.036543 28.043706l53.694923 0c24.153096 0 45.529963 15.393595 53.188386 38.314631l10.202363 30.642904c6.742565 20.268626 1.559519 42.240033-13.539364 57.346079l-35.928281 35.935444c-5.29254 5.299703-8.219195 12.328793-8.219195 19.816325s2.926656 14.524808 8.219195 19.824511l52.573379 52.587706c10.586103 10.585079 29.076222 10.585079 39.662325 0l35.928281-35.922141c14.853289-14.865569 37.391608-20.192901 57.346079-13.539364l30.635741 10.203386c22.921036 7.646144 38.320771 29.008684 38.320771 53.175083L441.974645 776.106376c0 15.468296 12.582573 28.043706 28.037567 28.043706l83.97353 0c15.456017 0 28.036543-12.57541 28.036543-28.043706l0-53.68776c0-24.166399 15.401782-45.528939 38.321794-53.175083l30.636764-10.203386c19.912515-6.646374 42.507116-1.319042 57.345056 13.539364l35.929304 35.922141c10.585079 10.585079 29.076222 10.585079 39.661302 0l52.572356-52.587706c5.294586-5.299703 8.220219-12.33698 8.220219-19.824511s-2.925632-14.517645-8.220219-19.816325l-35.927257-35.935444c-15.099906-15.106046-20.281929-37.077453-13.538341-57.346079l10.214642-30.642904c7.645121-22.921036 29.021987-38.314631 53.176107-38.314631l53.6939 0c15.456017 0 28.036543-12.582573 28.036543-28.043706L932.144454 342.022956zM489.734392 479.568612c-36.44812-8.082072-65.224514-36.852326-73.307609-73.307609-6.605442-29.774117 0.356111-60.23078 19.079544-83.563184 18.723434-23.333428 46.610574-36.70804 76.492138-36.722366l0.014326 0c7.385201 0 14.867616 0.820692 22.252817 2.461051 36.447097 8.083096 65.22349 36.852326 73.306586 73.307609 6.605442 29.78128-0.356111 60.245106-19.079544 83.57751C565.132616 474.426499 527.016507 487.857393 489.734392 479.568612zM580.218196 367.811296c-5.64865-25.473161-26.559912-46.37726-52.026934-52.033074-5.38873-1.190105-10.830673-1.806135-16.179494-1.806135l-0.014326 0c-21.348214 0-41.261753 9.573029-54.651714 26.25906-13.374612 16.671705-18.326391 38.526455-13.566994 59.965743 5.64865 25.473161 26.559912 46.384423 52.02591 52.039213 5.387707 1.181919 10.846022 1.797949 16.192797 1.797949 21.349237 0 41.263799-9.559727 54.652737-26.244734C580.025814 411.117614 584.97657 389.248537 580.218196 367.811296z"  horiz-adv-x="1024" />

    
    <glyph glyph-name="ok" unicode="&#58881;" d="M1011.8 708.719c-8.704 8.659-22.795 8.659-31.477-0.067l-605.116-607.454-320.557 321.848c-8.659 8.704-22.773 8.726-31.477 0.067-8.726-8.682-8.749-22.773-0.067-31.477l336.339-337.697c4.185-4.185 9.839-6.545 15.761-6.545s11.598 2.36 15.761 6.545l620.878 623.304c8.685 8.703 8.665 22.817-0.045 31.476z"  horiz-adv-x="1024" />

    
    <glyph glyph-name="shouji" unicode="&#58882;" d="M791.648 895.995h-559.321c-42.665 0-77.383-34.713-77.383-77.378v-869.228c0-42.67 34.713-77.383 77.383-77.383h559.321c42.68 0 77.409 34.713 77.409 77.383l-0.010 869.228c-0 42.665-34.719 77.378-77.399 77.378zM232.327 857.718h559.321c21.581 0 39.132-17.546 39.132-39.111v-90.409h-637.565v90.414c0 21.565 17.546 39.106 39.111 39.106zM830.78 689.926v-554.227h-637.565v554.227h637.565zM791.648-89.723h-559.321c-21.565 0-39.111 17.541-39.111 39.111v148.044h637.565v-148.044c0-21.576-17.551-39.111-39.132-39.111zM511.99 48.081c-27.295 0-49.449-22.134-49.449-49.444 0-27.315 22.159-49.403 49.449-49.403 0.015-0 0.033-0 0.051-0 27.273 0 49.382 22.109 49.382 49.382 0 0.007-0 0.014-0 0.022-0.005 27.304-22.103 49.442-49.433 49.442z"  horiz-adv-x="1024" />

    
    <glyph glyph-name="ciclePoint" unicode="&#59236;" d="M370.268 395c0-0 0-0 0-0 0-78.276 63.456-141.732 141.732-141.732 78.276 0 141.732 63.456 141.732 141.732 0 0 0 0 0 0 0 78.276-63.456 141.732-141.732 141.732-78.276 0-141.732-63.456-141.732-141.732z"  horiz-adv-x="1024" />

    
    <glyph glyph-name="laba" unicode="&#58993;" d="M527.530667 807.253333a32.042667 32.042667 0 0 1-35.072-4.138666c-0.469333-0.341333-49.066667-40.149333-102.698667-80.853334C296.32 651.349333 269.226667 639.573333 263.68 637.610667H131.541333c-0.64 0-1.28-0.128-1.962666-0.128H69.930667a27.733333 27.733333 0 0 1-27.264-28.16v-448.853334a27.733333 27.733333 0 0 1 27.264-28.16h215.466666c5.461333-1.962667 31.104-14.165333 113.792-84.010666a3292.928 3292.928 0 0 0 91.861334-80.597334 32.682667 32.682667 0 0 1 35.626666-5.632 34.304 34.304 0 0 1 19.541334 31.146667V776.405333a34.432 34.432 0 0 1-18.688 30.890667z m-35.413334-759.338666c-14.592 12.8-31.018667 26.88-47.872 40.874666-110.506667 92.458667-137.813333 100.266667-156.416 100.266667l-1.109333-0.085333-1.109333 0.085333H120.192c-19.072 0-23.466667 5.546667-23.466667 25.344V558.890667c0 13.397333 1.578667 21.76 17.194667 21.76H264.533333c17.962667 0 45.653333 7.68 166.698667 99.114666 21.632 16.341333 42.624 32.682667 60.885333 47.061334v-678.912z m325.717334 337.152c0 87.168-45.781333 163.328-113.92 204.16a38.4 38.4 0 0 1-15.445334 4.906666 27.904 27.904 0 0 1-27.306666-28.288c0-10.410667 5.418667-19.797333 13.653333-24.704a180.565333 180.565333 0 0 0 88.234667-156.16 180.48 180.48 0 0 0-90.965334-157.866666 28.672 28.672 0 0 1-13.098666-24.192c0-15.616 12.288-28.373333 27.349333-28.373334a36.181333 36.181333 0 0 1 13.952 3.84c70.058667 40.576 117.546667 117.930667 117.546667 206.677334z m-31.573334 347.904c-5.12 3.114667-10.112 5.76-16.298666 5.76a27.776 27.776 0 0 1-27.264-28.16c0-11.136 6.4-20.181333 15.573333-25.344 100.010667-60.288 167.253333-172.032 167.253333-300.16s-67.114667-239.829333-167.082666-300.117334c-8.789333-4.906667-16.256-14.208-16.256-25.6a27.733333 27.733333 0 0 1 27.221333-28.16c5.973333 0 10.88 2.346667 16.085333 5.632 116.053333 69.888 194.133333 199.552 194.133334 348.330667-0.042667 148.352-77.781333 277.888-193.322667 347.818667z"  horiz-adv-x="1024" />

    
    <glyph glyph-name="tuichu" unicode="&#58894;" d="M845.45641 187.076923c-21.005128 0-39.384615-18.379487-39.384615-39.384615v-7.876923c0-57.764103-15.753846-70.892308-78.769231-70.892308h78.769231v49.887179-52.51282h-630.153846 78.76923c-60.389744 0-76.14359 13.128205-78.76923 60.389743V654.441026v-36.758975c0 60.389744 10.502564 76.14359 68.266666 78.769231h483.117949c60.389744 0 76.14359-15.753846 76.14359-70.892308v-7.876923c0-21.005128 18.379487-39.384615 39.384615-39.384615s39.384615 18.379487 39.384616 39.384615V699.076923c0 44.635897-34.133333 78.769231-78.769231 78.769231H170.666667c-39.384615-2.625641-70.892308-36.758974-70.892308-78.769231v-632.779487c2.625641-42.010256 36.758974-76.14359 78.769231-76.14359H808.697436c44.635897 0 78.769231 34.133333 78.769231 78.769231v78.769231c-2.625641 23.630769-18.379487 39.384615-42.010257 39.384615zM808.697436 699.076923v-52.51282 52.51282h-65.641026 65.641026z m-630.153846 0h23.630769-23.630769z m732.553846-286.194872c-2.625641 2.625641-2.625641 2.625641-5.251282 2.625641l-154.912821 154.912821c-15.753846 15.753846-39.384615 15.753846-55.138461 0-15.753846-15.753846-15.753846-39.384615 0-55.138462L787.692308 423.384615H370.215385c-21.005128 0-39.384615-18.379487-39.384616-39.384615s18.379487-39.384615 39.384616-39.384615H787.692308l-89.271795-89.271795c-15.753846-15.753846-15.753846-42.010256 0-57.764103 15.753846-15.753846 39.384615-15.753846 55.138461 0l152.28718 154.912821c2.625641 2.625641 5.251282 2.625641 5.251282 5.251282 7.876923 7.876923 10.502564 18.379487 10.502564 28.882051 2.625641 7.876923-2.625641 18.379487-10.502564 26.25641z"  horiz-adv-x="1024" />

    
    <glyph glyph-name="xiugai" unicode="&#58920;" d="M812.8-96h-640C83.2-96 12.8-25.6 12.8 64V704C12.8 793.6 83.2 864 172.8 864h492.8c19.2 0 38.4-12.8 38.4-32s-12.8-32-32-32H172.8c-51.2 0-89.6-44.8-89.6-96v-640c0-51.2 44.8-96 96-96h640c51.2 0 96 44.8 96 96V499.2c0 19.2 12.8 32 32 32s32-12.8 32-32V64c-6.4-89.6-76.8-160-166.4-160zM275.2 128c-6.4 0-19.2 6.4-25.6 12.8-12.8 12.8-12.8 32 0 44.8l704 640c12.8 12.8 32 12.8 44.8 0 12.8-12.8 12.8-32 0-44.8l-704-640c-6.4-12.8-12.8-12.8-19.2-12.8z"  horiz-adv-x="1024" />

    
    <glyph glyph-name="xiazai" unicode="&#59206;" d="M512-128C229.76-128 0.96 101.12 0.96 383.744S229.76 895.296 512 895.296s511.04-229.056 511.04-511.616c0-282.56-228.8-511.616-511.04-511.616zM512 848.256C255.744 848.192 48 640.192 48 383.68S255.744-80.832 512-80.832s464 208 464 464.512S768.256 848.192 512 848.192zM536.96 125.056c-26.496-26.56-36.8-10.496-47.296 0L284.8 330.24c-35.008 35.072 6.72 64.832 34.56 36.864l170.304-178.88V629.952c0 50.304 47.296 45.696 47.296 0v-441.792l170.24 178.88c27.264 27.328 76.224 4.8 34.624-36.864L536.96 125.056z"  horiz-adv-x="1024" />

    
    <glyph glyph-name="sanjiaoxia" unicode="&#59594;" d="M201.311 539.344L512 228.655l310.689 310.689z"  horiz-adv-x="1024" />

    
    <glyph glyph-name="iconjia" unicode="&#58880;" d="M902.3434168395388 325.0641317984599h-331.7799727632157v-331.8328909365038c0-32.33699770347935-26.226446372843796-58.53748421772893-58.56444253242294-58.53748421772893-32.33699770347935 0-58.56344407632318 26.200486514249597-58.56344407632318 58.53748421772893v331.8328909365038h-331.7819696754152c-32.36395601817335 0-58.56344407632318 26.200486514249597-58.56344407632318 58.53748421772893 0 32.32501623028203 26.20248342644915 58.53748421772893 58.56344407632318 58.53748421772893h331.7799727632157v331.8328909365038c0 32.32501623028203 26.226446372843796 58.53748421772893 58.56344407632318 58.53748421772893 32.33799615957912 0 58.56444253242294-26.213466443546704 58.56444253242294-58.53748421772893v-331.8338893926036h331.7799727632157c32.36395601817335 0 58.56444253242294-26.21146953134715 58.56444253242294-58.535487305529394-0.0009984560997770514-32.33699770347935-26.200486514249597-58.535487305529394-58.56444253242294-58.535487305529394z"  horiz-adv-x="1024" />

    
    <glyph glyph-name="zhanghao" unicode="&#59039;" d="M798.72 312.32c-46.08 51.2-102.4 87.04-168.96 107.52 71.68 46.08 122.88 128 122.88 220.16 0 143.36-112.64 256-250.88 256S256 778.24 256 640c0-92.16 51.2-174.08 122.88-220.16-15.36-5.12-25.6-10.24-40.96-15.36-51.2-20.48-97.28-51.2-133.12-92.16-40.96-40.96-66.56-87.04-92.16-138.24-20.48-51.2-30.72-107.52-30.72-168.96v-5.12c0-35.84 15.36-66.56 35.84-92.16 30.72-20.48 61.44-35.84 97.28-35.84h578.56c35.84 0 66.56 15.36 92.16 35.84 25.6 25.6 35.84 56.32 40.96 92.16v5.12c-5.12 117.76-46.08 225.28-128 307.2z m-655.36-307.2"  horiz-adv-x="1024" />

    
    <glyph glyph-name="zhanghao1" unicode="&#58936;" d="M977.454545-104.727273h-46.545454a418.909091 418.909091 0 1 1-837.818182 0H46.545455c0 226.443636 161.698909 415.092364 375.90109 456.843637a279.272727 279.272727 0 1 0 179.10691 0C815.755636 310.365091 977.454545 121.716364 977.454545-104.727273zM512 393.309091a223.418182 223.418182 0 1 1 0 446.836364 223.418182 223.418182 0 0 1 0-446.836364z"  horiz-adv-x="1024" />

    
    <glyph glyph-name="zhanghao-" unicode="&#58977;" d="M666.112 356.352c82.432 51.712 137.216 142.336 137.216 246.272C803.328 763.392 672.768 893.952 512 893.952S220.672 763.392 220.672 602.624c0-103.936 55.296-195.072 137.216-246.272C172.544 291.84 38.4 117.76 38.4-89.6c0-19.968 16.384-36.352 36.352-36.352H949.248c19.968 0 36.352 16.384 36.352 36.352 0 207.36-134.144 381.44-319.488 445.952zM293.376 602.624c0 120.832 97.792 218.624 218.624 218.624s218.624-97.792 218.624-218.624S632.832 384 512 384 293.376 481.792 293.376 602.624z m218.624-291.328c208.896 0 378.368-160.256 397.312-364.544H114.688c18.944 203.776 188.416 364.544 397.312 364.544z"  horiz-adv-x="1024" />

    
    <glyph glyph-name="sfz" unicode="&#58884;" d="M963.508333 729.2125H74.8625c-41.979167 0-74.8625-22.404167-74.8625-51.004167v-622.429166c0-28.595833 32.883333-51 74.8625-51h888.65c41.975 0 74.858333 22.404167 74.858333 51V678.208333c-0.004167 28.6-32.883333 51.004167-74.8625 51.004167z m49.858334-673.433333c0-12.295833-20.475-26-49.858334-26H74.8625c-29.383333 0-49.8625 13.704167-49.8625 26V678.208333c0 12.3 20.479167 26.004167 49.8625 26.004167h888.65c29.383333 0 49.858333-13.704167 49.858333-26.004167v-622.429166zM107.691667 507.879167h437.120833v-25H107.691667zM107.691667 347.72083299999997h437.120833v-25H107.691667zM107.691667 187.56666700000005h437.120833v-25H107.691667zM821.8625 356.741667c34.741667 19.783333 58.241667 57.133333 58.241667 99.895833 0 63.358333-51.545833 114.9-114.9 114.9s-114.9-51.545833-114.9-114.9c0-42.758333 23.5-80.1125 58.245833-99.895833-70.495833-25.525-121.429167-97.2625-121.429167-181.679167v-12.5h343.670834l12.5 0.120833v12.5c0 84.320833-50.9375 156.0375-121.429167 181.558334z m-146.5625 99.895833c0 49.570833 40.329167 89.9 89.9 89.9s89.9-40.329167 89.9-89.9c0-49.566667-40.329167-89.895833-89.9-89.895833s-89.9 40.325-89.9 89.895833z m-62.7625-269.070833c5.841667 86.075 72.083333 154.175 152.666667 154.175 80.5875 0 146.825-68.1 152.670833-154.175h-305.3375z"  horiz-adv-x="1038" />

    
    <glyph glyph-name="taobaozhongchou4qiqianbi" unicode="&#58905;" d="M852.537883 372.348772c-0.414439-0.414439-2.234901 0.740874-4.072759 2.573615L591.424934 631.967694c-1.837858 1.832741-2.987031 3.659343-2.578732 4.072759l57.909921 57.905828c0.414439 0.413416 2.241041-0.735757 4.072759-2.573615l257.045307-257.040191c1.831718-1.837858 2.988054-3.660366 2.573615-4.072759L852.537883 372.348772 852.537883 372.348772zM979.314265 644.868515l-119.17424 119.17424C830.137711 794.045069 786.906094 801.385245 754.500033 784.755496c-6.813173-3.492544-13.152555-8.021697-18.783809-13.651928l-35.509748-35.510772c-2.569522-2.568499-4.88424-5.296633-7.006578-8.134261 0.408299-0.538259 0.912789-1.122567 1.499144-1.707898l246.428505-246.428505c0.543376-0.543376 1.079588-1.011027 1.585101-1.402953 2.842745 2.122337 5.578042 4.444219 8.145517 7.017834l35.510772 35.509748c5.630231 5.631254 10.159384 11.976776 13.657045 18.788925C1016.655731 571.634584 1009.31044 614.871317 979.314265 644.868515L979.314265 644.868515zM391.236566-87.357212c-1.606591-5.786797 416.676981 413.202856 416.676981 413.202856 2.966565 2.965541 5.056156 5.683443 4.669346 6.071276l-54.385655 54.385655c-0.38681 0.38681-3.105734-1.703805-6.071276-4.669346l-410.156474-410.714176c-0.160659-0.166799-9.321296-5.496178-9.476839-5.65786 0 0-157.870564-45.864584-161.846108-46.116317-3.305279-0.214894-20.085454 18.783809-20.085454 18.783809s-15.715937 13.975293-15.715937 17.35425 50.14098 172.340113 50.14098 172.340113l408.188656 410.709059c2.965541 2.965541 5.078669 5.662977 4.712325 6.02932l-50.867528 50.865481c-0.35918 0.360204-3.061732-1.74576-6.027274-4.711302L125.528971 175.046127c-0.382717-0.382717-5.803169-5.873778-6.421246-8.010441L31.748075-127.595658c-3.873214-6.108115-6.125511-13.352099-6.125511-21.12104 0-21.819958 17.687848-39.513946 39.513946-39.513946 7.393387 0 14.307867 2.037403 20.2236 5.571902 0.692778-0.12382 2.025123 0.036839 3.51301 0.467651 0 0 282.374182 82.728166 286.882869 86.387509M710.464097 433.86994l-67.694775 67.694775c-0.484024 0.483001-3.25002-1.499144-6.178723-4.427846L226.337935 86.885228c-2.358721-2.358721-4.084015-4.594645-4.41659-5.631254l55.513338-12.428054c2.809999-1.095961 4.948709-3.535523 5.619998-6.53381 0.086981-0.391926 0.145309-0.789992 0.183172-1.198292l7.377014-47.874357c1.166569 0.602727 3.116991 2.166339 5.16872 4.219091l410.252665 410.252665C708.964954 430.618896 710.947098 433.385916 710.464097 433.86994L710.464097 433.86994zM710.464097 433.86994"  horiz-adv-x="1024" />

    


  </font>
</defs>
</svg>
